<svg xmlns="http://www.w3.org/2000/svg" width="512" height="512" viewBox="0 0 512 512" role="img" aria-label="Binaural Maker">
  <defs>
    <radialGradient id="bg" cx="50%" cy="45%" r="70%">
      <stop offset="0%" stop-color="#0b1020" />
      <stop offset="100%" stop-color="#0f172a" />
    </radialGradient>
    <linearGradient id="stroke" x1="0" y1="0" x2="1" y2="1">
      <stop offset="0%" stop-color="#38bdf8" />
      <stop offset="100%" stop-color="#22c55e" />
    </linearGradient>
  </defs>
  <rect width="512" height="512" fill="url(#bg)" />
  <circle cx="256" cy="256" r="170" fill="none" stroke="#0b1224" stroke-width="18" />
  <path
    d="M256 106
       C186 106 130 162 130 232
       C130 304 190 352 256 352
       C314 352 366 314 366 256
       C366 196 318 156 264 156
       C216 156 184 190 184 230
       C184 270 214 296 250 296
       C284 296 308 270 308 244
       C308 216 288 198 264 198"
    fill="none"
    stroke="url(#stroke)"
    stroke-width="20"
    stroke-linecap="round"
    stroke-linejoin="round"
  />
  <path
    d="M120 256
       C160 230 210 216 256 216
       C302 216 352 230 392 256"
    fill="none"
    stroke="#38bdf8"
    stroke-width="10"
    stroke-linecap="round"
    opacity="0.75"
  />
  <path
    d="M120 296
       C160 270 210 256 256 256
       C302 256 352 270 392 296"
    fill="none"
    stroke="#22c55e"
    stroke-width="10"
    stroke-linecap="round"
    opacity="0.75"
  />
</svg>
